# xmcd
#
# Track frame offsets: 
#        150
#        12420
#        25302
#        50693
#        67760
#        90056
#        106579
#        115237
#        134782
#        150646
#        166928
#
# Disc length: 2448 seconds
#
# Revision: 2
# Processed by: cddbd v1.5.2PL0 Copyright (c) Steve Scherf et al.
# Submitted via: ExactAudioCopy v1.1
#
DISCID=80098e0b
DTITLE=>Sir< Oliver Mally - LOVE IS A DEVIL
DYEAR=2005
DGENRE=Blues
TTITLE0=I DONT´ CARE AT ALL
TTITLE1=BUTTERFLY GIRL
TTITLE2=LOVE IS A DEVIL
TTITLE3=IT´S A LONG WAY TO THE TOP
TTITLE4=BILLY
TTITLE5=SUNSHINE, SUNSHINE
TTITLE6=LOVIN´ BLUES
TTITLE7=YOU AIN´T NOTHING SPECIAL
TTITLE8=YOU TOOK ME BY SURPRISE #2
TTITLE9=SEE ME ...(SLIGHT RETURN)
TTITLE10=NEW YEARS EVE
EXTD=
EXTT0=
EXTT1=
EXTT2=
EXTT3=
EXTT4=
EXTT5=
EXTT6=
EXTT7=
EXTT8=
EXTT9=
EXTT10=
PLAYORDER=
